<svg width="24" height="24" viewBox="0 0 24 24" fill="none" xmlns="http://www.w3.org/2000/svg">
<path fill-rule="evenodd" clip-rule="evenodd" d="M12 0C5.376 0 0 5.376 0 12C0 18.624 5.376 24 12 24C18.624 24 24 18.624 24 12C24 5.376 18.624 0 12 0ZM12 10.6801C11.268 10.6801 10.68 11.2681 10.68 12.0001C10.68 12.7321 11.268 13.3201 12 13.3201C12.732 13.3201 13.32 12.7321 13.32 12.0001C13.32 11.2681 12.732 10.6801 12 10.6801ZM4.8 19.2L14.628 14.628L19.2 4.80005L9.372 9.37205L4.8 19.2Z" fill="#3142C6"/>
</svg>
